<?xml version="1.0" encoding="utf-8"?>
<svg xmlns="http://www.w3.org/2000/svg" viewBox="0 0 500 500" xmlns:bx="https://boxy-svg.com">
  <defs>
    <bx:export>
      <bx:file format="png"/>
    </bx:export>
  </defs>
  <g transform="matrix(1, 0, 0, 1, -1.999992, -0.000208)">
    <rect x="431.158" y="210.532" width="30.884" height="66.033" style="stroke-width: 1.325;"/>
    <rect x="41.958" y="216.232" width="30.884" height="66.033" style="stroke-width: 1.325;"/>
    <path d="M 179.958 363.772 C 118.811 363.772 69.241 314.202 69.241 253.055 C 69.241 191.908 118.811 142.338 179.958 142.338 C 198.197 142.338 215.405 146.748 230.576 154.56 L 230.576 351.549 C 215.405 359.362 198.197 363.772 179.958 363.772 Z" style="stroke: rgb(62, 78, 129); fill: rgb(184, 203, 220); stroke-width: 33.113;"/>
    <rect x="214.099" y="3.013" width="33.03" height="286.519" style="fill: rgb(62, 78, 129); stroke-linecap: round; stroke-width: 1.325;"/>
    <g transform="matrix(-1.324528, 0, 0, -1.324528, 599.052185, 572.647827)" style="">
      <path d="M 207.963 329.483 C 161.798 329.483 124.373 292.058 124.373 245.893 C 124.373 199.728 161.798 162.303 207.963 162.303 C 221.733 162.303 234.725 165.633 246.179 171.531 L 246.179 320.255 C 234.725 326.153 221.733 329.483 207.963 329.483 Z" style="stroke: rgb(62, 78, 129); fill: rgb(184, 203, 220); stroke-width: 25px;"/>
      <rect x="233.739" y="57.115" width="24.937" height="216.318" style="fill: rgb(62, 78, 129); stroke-linecap: round;"/>
    </g>
    <rect x="214.097" y="3.003" width="33.03" height="17.885" style="stroke-linecap: round; stroke-width: 1.325; fill: rgb(246, 225, 84);"/>
    <path style="fill: rgb(246, 225, 84); stroke-width: 1.325;" d="M 214.101 20.722 L 247.125 39.406 L 247.124 20.747 L 214.101 20.722 Z"/>
    <rect x="247.141" y="138.376" width="9.266" height="223.2" style="fill: rgb(246, 225, 84); stroke-width: 1.325;"/>
    <path d="M 156.685 172.157 C 158.616 171.898 159.657 171.999 161.196 172.204 C 162.816 172.422 164.626 172.876 166.175 173.487 C 167.681 174.083 169.106 174.889 170.379 175.795 C 171.624 176.681 172.748 177.71 173.748 178.847 C 174.756 179.991 175.691 181.356 176.395 182.643 C 177.059 183.856 177.537 185.093 177.913 186.342 C 178.281 187.564 178.515 188.844 178.643 190.052 C 178.765 191.206 178.779 192.276 178.691 193.434 C 178.598 194.643 178.44 195.863 178.067 197.162 C 177.654 198.605 177.119 200.178 176.215 201.699 C 175.195 203.417 173.642 205.453 172.061 206.887 C 170.532 208.278 169.091 209.221 166.922 210.23 C 164.199 211.498 159.334 212.293 156.598 213.534 C 154.419 214.522 152.706 215.429 151.4 216.764 C 150.191 218.001 149.804 219.809 148.87 221.14 C 147.974 222.419 146.974 223.62 145.931 224.621 C 144.947 225.567 143.944 226.329 142.809 227.033 C 141.641 227.758 140.281 228.419 139.003 228.892 C 137.775 229.345 136.624 229.654 135.295 229.845 C 133.863 230.053 132.102 230.115 130.675 230.024 C 129.375 229.941 128.285 229.739 127.059 229.399 C 125.759 229.04 124.52 228.702 123.091 227.877 C 121.302 226.844 118.796 225.033 117.219 223.282 C 115.721 221.617 114.54 219.434 113.758 217.694 C 113.096 216.222 112.815 214.924 112.572 213.539 C 112.333 212.188 112.226 210.889 112.288 209.485 C 112.354 207.998 112.597 206.392 113.011 204.853 C 113.442 203.259 113.964 201.858 114.86 200.091 C 115.973 197.902 117.755 194.935 119.491 192.696 C 119.521 192.658 119.551 192.619 119.581 192.581 C 130.104 183.407 128.731 183.611 137.899 178.303 C 138.862 177.811 139.762 177.367 140.519 177.008 C 142.538 176.052 143.43 175.701 145.564 175.02 C 148.446 174.1 153.88 172.532 156.685 172.157 Z" style="fill: rgb(227, 240, 252); stroke-width: 1.325; transform-box: fill-box; transform-origin: 50% 50%;" transform="matrix(0.999899, 0.014213, -0.014213, 0.999899, 0, 0)"/>
  </g>
</svg>